<mxfile host="app.diagrams.net" modified="2021-05-06T23:37:08.115Z" agent="5.0 (Windows NT 10.0; Win64; x64) AppleWebKit/537.36 (KHTML, like Gecko) Chrome/90.0.4430.93 Safari/537.36" etag="v4GPbIGS0S5r3MIcP9P_" version="14.6.9" type="github">
  <diagram id="EW8y-90sn8qm0zdfdRmy" name="Page-1">
    <mxGraphModel dx="341" dy="156" grid="1" gridSize="10" guides="1" tooltips="1" connect="1" arrows="1" fold="1" page="1" pageScale="1" pageWidth="1169" pageHeight="1654" math="0" shadow="0">
      <root>
        <mxCell id="0" />
        <mxCell id="1" parent="0" />
        <mxCell id="1YWA5LtyOcCbF4ka-4Vv-1" value="" style="rounded=1;whiteSpace=wrap;html=1;" vertex="1" parent="1">
          <mxGeometry x="400" y="200" width="320" height="450" as="geometry" />
        </mxCell>
        <mxCell id="1YWA5LtyOcCbF4ka-4Vv-2" value="Use case diagram for Uni-Thirst System" style="text;html=1;align=center;verticalAlign=middle;resizable=0;points=[];autosize=1;strokeColor=none;" vertex="1" parent="1">
          <mxGeometry x="445" y="180" width="230" height="20" as="geometry" />
        </mxCell>
        <mxCell id="1YWA5LtyOcCbF4ka-4Vv-3" value="Visitor" style="shape=umlActor;verticalLabelPosition=bottom;verticalAlign=top;html=1;outlineConnect=0;" vertex="1" parent="1">
          <mxGeometry x="370" y="250" width="30" height="60" as="geometry" />
        </mxCell>
        <mxCell id="1YWA5LtyOcCbF4ka-4Vv-6" value="User who want to &lt;br&gt;register an account" style="shape=umlActor;verticalLabelPosition=bottom;verticalAlign=top;html=1;outlineConnect=0;" vertex="1" parent="1">
          <mxGeometry x="250" y="570" width="30" height="60" as="geometry" />
        </mxCell>
        <mxCell id="1YWA5LtyOcCbF4ka-4Vv-7" value="User with an account" style="shape=umlActor;verticalLabelPosition=bottom;verticalAlign=top;html=1;outlineConnect=0;" vertex="1" parent="1">
          <mxGeometry x="840" y="420" width="30" height="60" as="geometry" />
        </mxCell>
        <mxCell id="1YWA5LtyOcCbF4ka-4Vv-9" value="Student who want to have coffee" style="shape=umlActor;verticalLabelPosition=bottom;verticalAlign=top;html=1;outlineConnect=0;" vertex="1" parent="1">
          <mxGeometry x="830" y="220" width="30" height="60" as="geometry" />
        </mxCell>
        <mxCell id="1YWA5LtyOcCbF4ka-4Vv-10" value="" style="endArrow=classic;html=1;entryX=0.192;entryY=0.229;entryDx=0;entryDy=0;entryPerimeter=0;" edge="1" parent="1" target="1YWA5LtyOcCbF4ka-4Vv-1">
          <mxGeometry width="50" height="50" relative="1" as="geometry">
            <mxPoint x="410" y="280" as="sourcePoint" />
            <mxPoint x="610" y="330" as="targetPoint" />
          </mxGeometry>
        </mxCell>
        <mxCell id="1YWA5LtyOcCbF4ka-4Vv-11" value="Find&amp;nbsp;" style="text;html=1;strokeColor=none;fillColor=none;align=center;verticalAlign=middle;whiteSpace=wrap;rounded=0;" vertex="1" parent="1">
          <mxGeometry x="560" y="290" width="40" height="20" as="geometry" />
        </mxCell>
        <mxCell id="1YWA5LtyOcCbF4ka-4Vv-13" value="" style="endArrow=classic;html=1;entryX=0.012;entryY=0.587;entryDx=0;entryDy=0;entryPerimeter=0;" edge="1" parent="1" target="1YWA5LtyOcCbF4ka-4Vv-17">
          <mxGeometry width="50" height="50" relative="1" as="geometry">
            <mxPoint x="280" y="605" as="sourcePoint" />
            <mxPoint x="660" y="460" as="targetPoint" />
          </mxGeometry>
        </mxCell>
        <mxCell id="1YWA5LtyOcCbF4ka-4Vv-16" value="Provide valid personal information" style="text;html=1;strokeColor=none;fillColor=none;align=center;verticalAlign=middle;whiteSpace=wrap;rounded=0;" vertex="1" parent="1">
          <mxGeometry x="280" y="610" width="120" height="20" as="geometry" />
        </mxCell>
        <mxCell id="1YWA5LtyOcCbF4ka-4Vv-17" value="" style="ellipse;whiteSpace=wrap;html=1;" vertex="1" parent="1">
          <mxGeometry x="435" y="570" width="90" height="60" as="geometry" />
        </mxCell>
        <mxCell id="1YWA5LtyOcCbF4ka-4Vv-21" value="Account&amp;nbsp;&lt;br&gt;Registration" style="text;html=1;strokeColor=none;fillColor=none;align=center;verticalAlign=middle;whiteSpace=wrap;rounded=0;" vertex="1" parent="1">
          <mxGeometry x="460" y="590" width="40" height="20" as="geometry" />
        </mxCell>
        <mxCell id="1YWA5LtyOcCbF4ka-4Vv-22" value="" style="ellipse;whiteSpace=wrap;html=1;" vertex="1" parent="1">
          <mxGeometry x="435" y="490" width="90" height="50" as="geometry" />
        </mxCell>
        <mxCell id="1YWA5LtyOcCbF4ka-4Vv-23" value="Message Verification" style="text;html=1;strokeColor=none;fillColor=none;align=center;verticalAlign=middle;whiteSpace=wrap;rounded=0;" vertex="1" parent="1">
          <mxGeometry x="460" y="505" width="40" height="20" as="geometry" />
        </mxCell>
        <mxCell id="1YWA5LtyOcCbF4ka-4Vv-25" value="" style="endArrow=classic;html=1;exitX=0.5;exitY=0;exitDx=0;exitDy=0;entryX=0.5;entryY=1;entryDx=0;entryDy=0;" edge="1" parent="1" source="1YWA5LtyOcCbF4ka-4Vv-17" target="1YWA5LtyOcCbF4ka-4Vv-22">
          <mxGeometry width="50" height="50" relative="1" as="geometry">
            <mxPoint x="600" y="500" as="sourcePoint" />
            <mxPoint x="650" y="450" as="targetPoint" />
          </mxGeometry>
        </mxCell>
        <mxCell id="1YWA5LtyOcCbF4ka-4Vv-26" value="&amp;lt;&amp;lt;uses&amp;gt;&amp;gt;" style="text;html=1;strokeColor=none;fillColor=none;align=center;verticalAlign=middle;whiteSpace=wrap;rounded=0;" vertex="1" parent="1">
          <mxGeometry x="430" y="550" width="40" height="20" as="geometry" />
        </mxCell>
        <mxCell id="1YWA5LtyOcCbF4ka-4Vv-27" value="" style="endArrow=classic;html=1;exitX=0;exitY=0.5;exitDx=0;exitDy=0;" edge="1" parent="1" source="1YWA5LtyOcCbF4ka-4Vv-22" target="1YWA5LtyOcCbF4ka-4Vv-6">
          <mxGeometry width="50" height="50" relative="1" as="geometry">
            <mxPoint x="600" y="500" as="sourcePoint" />
            <mxPoint x="310" y="570" as="targetPoint" />
            <Array as="points">
              <mxPoint x="360" y="515" />
            </Array>
          </mxGeometry>
        </mxCell>
        <mxCell id="1YWA5LtyOcCbF4ka-4Vv-29" value="Notifies" style="text;html=1;strokeColor=none;fillColor=none;align=center;verticalAlign=middle;whiteSpace=wrap;rounded=0;" vertex="1" parent="1">
          <mxGeometry x="350" y="490" width="40" height="20" as="geometry" />
        </mxCell>
        <mxCell id="1YWA5LtyOcCbF4ka-4Vv-30" value="" style="endArrow=classic;html=1;entryX=0.056;entryY=0.704;entryDx=0;entryDy=0;entryPerimeter=0;" edge="1" parent="1" target="1YWA5LtyOcCbF4ka-4Vv-22">
          <mxGeometry width="50" height="50" relative="1" as="geometry">
            <mxPoint x="290" y="590" as="sourcePoint" />
            <mxPoint x="470" y="540" as="targetPoint" />
            <Array as="points">
              <mxPoint x="360" y="525" />
            </Array>
          </mxGeometry>
        </mxCell>
        <mxCell id="1YWA5LtyOcCbF4ka-4Vv-31" value="Confirms" style="text;html=1;strokeColor=none;fillColor=none;align=center;verticalAlign=middle;whiteSpace=wrap;rounded=0;" vertex="1" parent="1">
          <mxGeometry x="350" y="540" width="40" height="20" as="geometry" />
        </mxCell>
      </root>
    </mxGraphModel>
  </diagram>
</mxfile>
